# xmcd
#
# Track frame offsets: 
#        150
#        17876
#        34595
#        61046
#        88877
#        110130
#        147919
#        202787
#        228261
#        265788
#
# Disc length: 3857 seconds
#
# Revision: 0
# Processed by: cddbd v1.5.2PL0 Copyright (c) Steve Scherf et al.
# Submitted via: ExactAudioCopy v0.95b3
#
DISCID=800f0f0a
DTITLE=Led Zeppelin  - The NEW Song Remains The Same Soundtrack - Disc
DTITLE=1
DYEAR=1900
DGENRE=
TTITLE0=Rock and Roll
TTITLE1=Celebration Day
TTITLE2=Black Dog
TTITLE3=Over the Hills and Far Away
TTITLE4=Misty Mountain Hop
TTITLE5=Since I've Been Loving You
TTITLE6=No Quarter
TTITLE7=The Song Remains the Same
TTITLE8=The Rain Song
TTITLE9=The Ocean
EXTD=
EXTT0=
EXTT1=
EXTT2=
EXTT3=
EXTT4=
EXTT5=
EXTT6=
EXTT7=
EXTT8=
EXTT9=
PLAYORDER=
